PathFileType	4	(X/Y/Z)	T:\Spectrum_Optical_Capture\Spectrum_Demo_10_05_01_TRUECOMBAT\07_Smooth_Trc\TC_Jump_1.trc
DataRate	CameraRate	NumFrames	NumMarkers	Units	OrigDataRate	OrigDataStartFrame	OrigNumFrames
60.0	60.0	       4	46	mm	60.0	343	       913
Frame#	Time	HeadTop			ForeHead			LFrontHead			RFrontHead			TopSpine			Sternum			Scapula			LFShoulder			LShoulder			LBicep			LOuterElbow			LHand			LWristPinky			LWristThumb			RFShoulder			RShoulder			RBicep			ROuterElbow			RHand			RWristPinky			RWristThumb			MiddleBack			LowerBack			Root			Pelvis			LBackWaist			RBackWaist			LFrontWaist			RFrontWaist			Bellymarker			LThigh			LOuterKnee			LAnkle			LHeel			LOuterMeta			LToe			RThigh			ROuterKnee			RAnkle			RHeel			ROuterMeta			RToe			Floor1			Floor2			Floor3			Floor4			
		X1	Y1	Z1	X2	Y2	Z2	X3	Y3	Z3	X4	Y4	Z4	X5	Y5	Z5	X6	Y6	Z6	X7	Y7	Z7	X8	Y8	Z8	X9	Y9	Z9	X10	Y10	Z10	X11	Y11	Z11	X12	Y12	Z12	X13	Y13	Z13	X14	Y14	Z14	X15	Y15	Z15	X16	Y16	Z16	X17	Y17	Z17	X18	Y18	Z18	X19	Y19	Z19	X20	Y20	Z20	X21	Y21	Z21	X22	Y22	Z22	X23	Y23	Z23	X24	Y24	Z24	X25	Y25	Z25	X26	Y26	Z26	X27	Y27	Z27	X28	Y28	Z28	X29	Y29	Z29	X30	Y30	Z30	X31	Y31	Z31	X32	Y32	Z32	X33	Y33	Z33	X34	Y34	Z34	X35	Y35	Z35	X36	Y36	Z36	X37	Y37	Z37	X38	Y38	Z38	X39	Y39	Z39	X40	Y40	Z40	X41	Y41	Z41	X42	Y42	Z42	X43	Y43	Z43	X44	Y44	Z44	X45	Y45	Z45	X46	Y46	Z46	

343	5.700	-1480.52100	1279.55334	-1906.08521	-1448.58240	1124.55383	-1846.10449	-1430.14832	1136.52417	-1963.50598	-1556.16150	1159.73425	-1828.70398	-1695.20764	1093.67480	-2048.63306	-1606.60352	793.47711	-1978.26575	-1853.02795	1001.38599	-1982.47424	-1546.31677	906.30969	-2028.72180	-1506.05334	1033.62378	-2100.71973	-1398.71436	894.74585	-2068.23389	-1378.46667	769.44891	-2079.86743	-1269.03186	803.91504	-1844.00073	-1232.85815	746.88861	-1767.43091	-1225.41479	839.84039	-1728.57849	-1618.34863	905.03113	-1892.70984	-1700.26196	1030.50256	-1858.13245	-1727.76819	899.70880	-1767.36780	-1648.62756	757.12531	-1732.04675	-1402.72070	770.26135	-1651.17090	-1317.67102	709.49982	-1659.33533	-1267.22961	777.49347	-1607.43420	-1748.75244	1041.04077	-2092.43384	-1820.55762	943.75397	-2147.73389	-1880.79639	840.86237	-2193.50928	-1727.77222	842.12512	-2268.59277	-1800.44141	733.37579	-2312.79126	-1983.89612	733.19971	-2082.52637	-1680.20618	701.32446	-2234.03931	-1881.90796	703.84216	-1975.75598	-1690.71472	660.07739	-2031.27576	-1617.25281	528.96490	-2262.10107	-1482.68823	454.59015	-2175.39990	-1588.33704	149.87122	-2222.09839	-1705.95251	118.79111	-2233.63940	-1565.59961	56.62856	-2208.91406	-1536.62720	28.66798	-2093.45410	-1827.82336	555.00079	-1895.06873	-1738.56189	430.26904	-1854.60120	-1796.79602	140.14012	-1955.17249	-1822.96838	83.89950	-2091.19336	-1794.02698	33.98073	-1940.47900	-1675.14050	31.98603	-1903.16748	4200.79785	32.69191	-4241.26855	-3734.38721	-12.65051	-4192.57080	-3782.58179	-15.92188	4948.16895	4163.79346	21.45494	4907.47803	
344	5.717	-1488.20837	1313.00366	-1903.64465	-1453.83423	1159.07483	-1842.52222	-1435.34033	1170.38879	-1959.80017	-1561.59277	1192.19861	-1825.50146	-1698.93042	1121.82434	-2044.94409	-1605.58374	822.56512	-1972.98657	-1855.33423	1026.53796	-1979.54895	-1546.27600	936.86438	-2023.63599	-1508.00818	1064.10754	-2098.46973	-1402.22424	920.28662	-2067.22192	-1385.30139	794.25714	-2081.28491	-1277.44727	828.24054	-1846.08960	-1239.88843	772.63959	-1770.79053	-1232.45532	866.21942	-1733.72253	-1620.75452	934.29236	-1889.24609	-1704.15466	1057.97766	-1853.60059	-1731.03833	922.13519	-1767.50427	-1653.01086	776.52448	-1739.39099	-1407.58521	789.34912	-1660.07019	-1320.56189	731.56891	-1672.97583	-1273.81360	798.83093	-1616.11230	-1751.44067	1067.47058	-2088.78223	-1820.76685	968.08417	-2143.32080	-1878.12134	864.11145	-2188.81445	-1726.10608	867.69336	-2263.90015	-1795.67725	757.31488	-2307.56299	-1980.56604	755.77100	-2078.68921	-1676.43542	725.95081	-2228.09229	-1879.04773	726.49182	-1972.14783	-1687.55176	685.62793	-2026.57068	-1615.85315	544.75940	-2259.91113	-1486.17419	460.39249	-2174.63989	-1591.21240	149.91051	-2221.71069	-1707.84924	117.18997	-2232.81226	-1566.56213	57.04137	-2208.85059	-1537.41528	28.96895	-2093.44238	-1827.52747	567.19031	-1893.14075	-1743.41113	435.83075	-1858.61414	-1799.65833	138.34984	-1957.39563	-1824.30737	80.14696	-2092.77124	-1795.12195	31.88785	-1942.36975	-1676.28552	32.13966	-1903.22327	4200.79590	32.63631	-4241.36963	-3734.38940	-12.69672	-4192.56396	-3782.50806	-15.99030	4948.04590	4163.68555	21.51563	4907.43066	
345	5.733	-1495.91467	1347.25940	-1901.75903	-1459.59729	1194.44360	-1839.37939	-1441.00085	1205.15674	-1956.80896	-1567.30249	1225.78967	-1822.96057	-1702.69214	1150.73669	-2042.00732	-1605.22705	853.33203	-1968.29419	-1857.70117	1052.32202	-1977.38232	-1545.59949	968.71094	-2018.33911	-1510.07080	1095.32642	-2096.98608	-1406.44934	945.60956	-2067.97876	-1393.56470	819.00275	-2085.12085	-1285.40100	850.09998	-1851.08276	-1248.00000	794.78015	-1776.87109	-1239.57373	888.51959	-1739.65393	-1623.40588	964.89459	-1885.96655	-1708.73083	1086.64514	-1849.27319	-1736.25134	945.19702	-1768.58716	-1660.23547	796.65930	-1747.97461	-1416.17261	807.65472	-1667.61560	-1328.00623	752.01160	-1682.80762	-1283.05432	818.75659	-1623.61804	-1754.47144	1094.56323	-2085.82080	-1821.05786	992.95209	-2139.52808	-1875.38684	887.52338	-2184.35132	-1724.17969	893.61273	-2259.49561	-1790.58337	781.54327	-2302.38940	-1976.77283	778.72266	-2074.79517	-1672.07153	751.12555	-2222.03223	-1875.83533	749.96088	-1968.19885	-1683.81165	712.29553	-2021.40686	-1614.17224	561.35211	-2257.73730	-1490.43567	466.82098	-2174.14624	-1594.17273	149.73856	-2222.06982	-1709.53662	115.10107	-2232.76343	-1567.63367	56.98767	-2209.13159	-1537.92749	29.20978	-2093.49072	-1827.19495	579.84644	-1891.50391	-1749.25342	442.07190	-1863.52417	-1802.66931	136.46048	-1959.98987	-1825.56714	76.19965	-2094.62939	-1796.35400	29.77355	-1944.24536	-1677.22595	32.25831	-1903.39185	4200.72949	32.54286	-4241.47900	-3734.32471	-12.74434	-4192.56738	-3782.44312	-16.06892	4947.97266	4163.68506	21.52743	4907.43457	
346	5.750	-1503.58777	1381.99927	-1900.44409	-1465.67957	1230.32397	-1836.67859	-1446.87146	1240.45386	-1954.45483	-1573.30481	1260.15002	-1821.02539	-1706.65076	1180.13123	-2039.88647	-1605.30408	885.31927	-1964.10791	-1860.05371	1078.60022	-1976.11206	-1544.89514	1001.64172	-2013.06567	-1512.27954	1127.00134	-2096.19849	-1411.23328	970.69788	-2070.50684	-1402.92224	843.85535	-2091.22046	-1293.06763	869.27637	-1858.53699	-1257.47400	812.99414	-1784.80115	-1246.85034	906.40564	-1745.97327	-1626.21948	996.66156	-1882.86804	-1714.16309	1116.30615	-1845.32788	-1743.49609	968.97461	-1770.68872	-1670.42590	817.96259	-1757.44324	-1428.06421	825.16016	-1674.42615	-1339.91394	770.30267	-1689.51489	-1294.67932	836.95654	-1630.18298	-1757.64832	1122.05261	-2083.53857	-1821.29688	1018.08453	-2136.23950	-1872.50598	911.03619	-2180.15308	-1721.87170	919.63379	-2255.27783	-1785.18860	805.88257	-2297.25024	-1972.37573	801.91644	-2070.90259	-1667.05371	776.63306	-2215.88989	-1872.23950	774.05994	-1963.80090	-1679.41589	740.04846	-2015.78040	-1612.43018	578.61499	-2255.44043	-1495.66345	473.91693	-2174.02954	-1597.07556	149.37984	-2223.30859	-1711.15222	112.61039	-2233.51660	-1568.80798	56.49802	-2209.75757	-1538.03198	29.36727	-2093.64526	-1826.81030	592.91095	-1890.27783	-1755.91602	449.19678	-1869.17139	-1805.73755	134.55452	-1962.62891	-1826.82178	72.32628	-2096.44946	-1797.66943	27.88383	-1945.73999	-1677.91650	32.32232	-1903.63745	4200.63574	32.45712	-4241.55469	-3734.21704	-12.78488	-4192.57275	-3782.41553	-16.10514	4947.97900	4163.79199	21.51726	4907.48877	
